<svg xmlns="http://www.w3.org/2000/svg" viewBox="0 0 79.18 100.00" width="79.18" height="100.00"><path d="M49.37,59.03 L47.95,59.18 L47.31,53.18 C46.58,46.29 40.76,41.06 33.83,41.07 L17.19,41.07 C10.07,41.09 4.17,46.60 3.67,53.71 L1.42,83.39 C1.34,84.62 1.76,85.83 2.60,86.74 C3.44,87.64 4.62,88.15 5.85,88.15 L6.56,88.15 L6.56,94.08 C6.57,96.56 8.58,98.57 11.05,98.57 L38.89,98.57 L38.89,100.00 L11.05,100.00 C7.79,100.00 5.14,97.35 5.14,94.08 L5.14,89.53 C2.03,89.15 -0.23,86.40 0.00,83.29 L2.25,53.60 C2.81,45.75 9.33,39.66 17.19,39.64 L33.83,39.64 C41.49,39.63 47.93,45.41 48.73,53.03 L49.37,59.03 M10.49,14.46 C10.49,5.69 17.61,-1.43 26.39,-1.43 C35.16,-1.43 42.28,5.69 42.28,14.46 C42.28,23.24 35.16,30.36 26.39,30.36 C17.61,30.35 10.50,23.24 10.49,14.46 L10.49,14.46 M11.92,14.46 C11.92,22.45 18.40,28.93 26.39,28.93 C34.37,28.93 40.85,22.45 40.85,14.46 C40.85,6.48 34.37,-0.00 26.39,0.00 C18.40,0.01 11.93,6.48 11.92,14.46 L11.92,14.46 M33.96,78.77 L45.34,90.15 L44.33,91.16 L31.94,78.77 L43.83,66.88 L44.84,67.90 L33.96,78.77 M66.79,66.34 L65.78,67.35 L77.16,78.73 L66.29,89.61 L67.30,90.61 L79.18,78.73 L66.79,66.34 M51.84,97.62 L53.22,97.98 L62.84,60.69 L61.46,60.34 L51.84,97.62" fill-rule="evenodd" fill="#77a76e"/></svg>