<svg xmlns="http://www.w3.org/2000/svg" viewBox="0 0 100.00 93.08" width="100.00" height="93.08"><path d="M13.67,10.21 L8.48,10.21 L8.48,8.48 L13.67,8.48 L13.67,10.21 L13.67,10.21 M24.05,8.48 L18.86,8.48 L18.86,10.21 L24.05,10.21 L24.05,8.48 L24.05,8.48 M34.43,8.48 L29.24,8.48 L29.24,10.21 L34.43,10.21 L34.43,8.48 L34.43,8.48 M13.67,27.51 L8.48,27.51 L8.48,29.24 L13.67,29.24 L13.67,27.51 L13.67,27.51 M24.05,27.51 L18.86,27.51 L18.86,29.24 L24.05,29.24 L24.05,27.51 L24.05,27.51 M34.43,27.51 L29.24,27.51 L29.24,29.24 L34.43,29.24 L34.43,27.51 L34.43,27.51 M13.67,48.27 L13.67,46.54 L8.48,46.54 L8.48,48.27 L13.67,48.27 L13.67,48.27 M24.05,48.27 L24.05,46.54 L18.86,46.54 L18.86,48.27 L24.05,48.27 L24.05,48.27 M34.43,48.27 L34.43,46.54 L29.24,46.54 L29.24,48.27 L34.43,48.27 L34.43,48.27 M1.38,55.36 L44.81,55.36 L44.81,56.74 L0.00,56.74 L0.00,40.19 L1.44,38.75 L0.00,37.31 L0.00,21.16 L1.44,19.72 L0.00,18.28 L0.00,0.00 L89.61,0.00 L89.61,18.28 L88.17,19.72 L89.61,21.16 L89.61,37.31 L87.48,39.44 L2.71,39.44 L1.38,40.77 L1.38,55.36 L1.38,55.36 M1.38,17.70 L2.71,19.03 L86.90,19.03 L88.23,17.70 L88.23,1.38 L1.38,1.38 L1.38,17.70 L1.38,17.70 M1.38,36.73 L2.71,38.06 L86.90,38.06 L88.23,36.73 L88.23,21.74 L86.90,20.41 L2.71,20.41 L1.38,21.74 L1.38,36.73 L1.38,36.73 M55.05,43.24 L74.04,43.24 L74.04,49.82 L61.93,49.82 L61.93,84.13 C61.93,84.49 62.22,84.78 62.57,84.78 L74.04,84.78 L74.04,93.08 L54.92,93.08 C53.25,93.08 51.89,91.72 51.89,90.05 L51.89,84.43 L50.85,84.43 C49.52,84.43 48.43,83.34 48.43,82.01 C48.43,80.67 49.52,79.59 50.85,79.59 L51.89,79.59 L51.89,70.59 L50.85,70.59 C49.52,70.59 48.43,69.50 48.43,68.17 C48.43,66.83 49.52,65.75 50.85,65.75 L51.89,65.75 L51.89,56.75 L50.85,56.75 C49.52,56.75 48.43,55.66 48.43,54.33 C48.43,52.99 49.52,51.91 50.85,51.91 L51.89,51.91 L51.89,46.40 C51.89,44.66 53.31,43.24 55.05,43.24 L55.05,43.24 M50.85,55.37 L54.31,55.37 C54.89,55.37 55.35,54.90 55.35,54.33 C55.35,53.76 54.89,53.29 54.31,53.29 L50.85,53.29 C50.28,53.29 49.82,53.76 49.82,54.33 C49.82,54.90 50.28,55.37 50.85,55.37 L50.85,55.37 M50.85,69.21 L54.31,69.21 C54.89,69.21 55.35,68.74 55.35,68.17 C55.35,67.60 54.89,67.13 54.31,67.13 L50.85,67.13 C50.28,67.13 49.82,67.60 49.82,68.17 C49.82,68.74 50.28,69.21 50.85,69.21 L50.85,69.21 M50.85,83.05 L54.31,83.05 C54.89,83.05 55.35,82.58 55.35,82.01 C55.35,81.43 54.89,80.97 54.31,80.97 L50.85,80.97 C50.28,80.97 49.82,81.43 49.82,82.01 C49.82,82.58 50.28,83.05 50.85,83.05 L50.85,83.05 M72.65,44.63 L55.05,44.63 C54.07,44.63 53.28,45.42 53.28,46.40 L53.28,51.91 L54.31,51.91 C55.65,51.91 56.74,52.99 56.74,54.33 C56.74,55.66 55.65,56.75 54.31,56.75 L53.28,56.75 L53.28,65.75 L54.31,65.75 C55.65,65.75 56.74,66.83 56.74,68.17 C56.74,69.50 55.65,70.59 54.31,70.59 L53.28,70.59 L53.28,79.59 L54.31,79.59 C55.65,79.59 56.74,80.67 56.74,82.01 C56.74,83.34 55.65,84.43 54.31,84.43 L53.28,84.43 L53.28,90.05 C53.28,90.96 54.01,91.70 54.92,91.70 L72.65,91.70 L72.65,86.16 L62.57,86.16 C61.45,86.16 60.54,85.25 60.54,84.13 L60.54,49.45 C60.54,48.89 61.00,48.43 61.56,48.43 L72.65,48.43 L72.65,44.63 L72.65,44.63 M100.00,46.40 L100.00,90.05 C100.00,91.72 98.64,93.08 96.97,93.08 L81.30,93.08 L81.30,84.78 L91.05,84.78 C91.22,84.78 91.39,84.71 91.51,84.59 C91.63,84.47 91.70,84.30 91.70,84.13 L91.70,49.82 L81.30,49.82 L81.30,43.24 L96.84,43.24 C98.58,43.24 100.00,44.66 100.00,46.40 L100.00,46.40 M98.62,46.40 C98.62,45.42 97.82,44.63 96.84,44.63 L82.69,44.63 L82.69,48.43 L92.06,48.43 C92.63,48.43 93.08,48.89 93.08,49.45 L93.08,84.13 C93.08,85.25 92.17,86.16 91.05,86.16 L82.69,86.16 L82.69,91.69 L96.97,91.69 C97.88,91.69 98.62,90.96 98.62,90.05 L98.62,46.40 L98.62,46.40" fill-rule="evenodd" fill="#007ac2"/></svg>