<svg xmlns="http://www.w3.org/2000/svg" viewBox="0 0 100.00 97.55" width="100.00" height="97.55"><path d="M13.78,27.20 L14.66,26.32 L8.41,20.06 L11.91,20.06 C12.95,20.06 13.79,19.22 13.79,18.18 L13.79,12.85 C13.79,11.81 12.95,10.97 11.91,10.97 L1.88,10.97 C0.84,10.97 0.00,11.81 0.00,12.85 L0.00,18.18 C0.00,19.22 0.84,20.06 1.88,20.06 L6.64,20.06 L13.78,27.20 M1.25,18.18 L1.25,12.85 C1.25,12.51 1.53,12.23 1.88,12.23 L11.91,12.23 C12.26,12.23 12.54,12.51 12.54,12.85 L12.54,18.18 C12.54,18.53 12.26,18.81 11.91,18.81 L1.88,18.81 C1.53,18.81 1.25,18.53 1.25,18.18 L1.25,18.18 M45.77,9.09 L50.16,9.09 L50.16,17.08 L51.41,17.08 L51.41,9.09 L55.80,9.09 C56.84,9.09 57.68,8.25 57.68,7.21 L57.68,1.88 C57.68,0.84 56.84,-0.00 55.80,0.00 L45.77,0.00 C44.73,0.00 43.89,0.84 43.89,1.88 L43.89,7.21 C43.89,8.25 44.73,9.09 45.77,9.09 L45.77,9.09 M45.14,1.88 C45.14,1.53 45.42,1.25 45.77,1.25 L55.80,1.25 C56.15,1.25 56.43,1.53 56.43,1.88 L56.43,7.21 C56.43,7.56 56.15,7.84 55.80,7.84 L45.77,7.84 C45.42,7.84 45.14,7.56 45.14,7.21 L45.14,1.88 M98.12,10.97 L88.09,10.97 C87.05,10.97 86.21,11.81 86.21,12.85 L86.21,18.18 C86.21,19.22 87.05,20.06 88.09,20.06 L91.59,20.06 L85.34,26.32 L86.22,27.20 L93.36,20.06 L98.12,20.06 C99.16,20.06 100.00,19.22 100.00,18.18 L100.00,12.85 C100.00,11.81 99.16,10.97 98.12,10.97 L98.12,10.97 M98.75,18.18 C98.75,18.53 98.47,18.81 98.12,18.81 L88.09,18.81 C87.74,18.81 87.46,18.53 87.46,18.18 L87.46,12.85 C87.46,12.51 87.74,12.23 88.09,12.23 L98.12,12.23 C98.47,12.23 98.75,12.51 98.75,12.85 L98.75,18.18 M95.56,60.82 C95.54,68.52 91.15,75.54 84.24,78.94 L83.68,77.82 C90.17,74.63 94.28,68.04 94.31,60.82 C94.23,50.91 86.65,42.69 76.79,41.80 L76.28,41.75 L76.23,41.24 C75.19,30.48 66.05,22.67 54.49,22.67 C45.95,22.67 38.71,26.70 35.12,33.45 L34.86,33.93 L34.34,33.74 C32.88,33.20 31.34,32.92 29.78,32.92 C22.77,32.84 17.02,38.45 16.93,45.45 C16.93,45.86 16.95,46.26 16.99,46.66 L17.04,47.13 L16.60,47.30 C10.98,49.39 6.90,54.33 5.92,60.24 C4.94,66.15 7.20,72.14 11.84,75.93 C15.00,78.52 18.96,79.94 23.04,79.94 L26.49,79.94 L26.49,81.19 L23.04,81.19 C18.66,81.19 14.42,79.67 11.04,76.90 C6.12,72.88 3.69,66.56 4.65,60.27 C5.60,53.99 9.81,48.68 15.70,46.31 C15.68,46.03 15.67,45.74 15.67,45.45 C15.77,37.75 22.08,31.58 29.78,31.66 C31.31,31.66 32.82,31.91 34.27,32.39 C38.16,25.51 45.68,21.42 54.49,21.42 C66.53,21.42 76.09,29.46 77.42,40.61 C87.70,41.80 95.49,50.47 95.56,60.82 L95.56,60.82 M72.49,78.42 L79.41,82.68 L55.23,97.55 L31.04,82.68 L37.96,78.42 L38.62,79.49 L33.43,82.68 L40.24,86.86 C42.25,85.56 44.41,84.49 46.66,83.65 L47.09,84.83 C45.12,85.56 43.22,86.49 41.43,87.59 L55.23,96.08 L67.16,88.74 L61.98,85.55 L62.64,84.48 L68.36,88.00 L74.23,84.39 C71.87,83.60 69.44,83.04 66.98,82.72 L67.14,81.47 C70.04,81.85 72.88,82.55 75.62,83.54 L77.02,82.68 L71.84,79.49 L72.49,78.42 M31.04,57.03 L55.22,71.90 L79.41,57.03 L55.22,42.16 L31.04,57.03 M33.43,57.03 L48.62,47.69 C50.96,49.21 53.19,50.88 55.29,52.71 C55.58,52.95 55.73,53.32 55.71,53.70 C55.61,54.51 55.40,55.30 55.08,56.05 C54.85,56.58 54.69,57.14 54.62,57.72 C54.62,58.98 55.57,59.67 56.41,60.28 C57.25,60.89 57.76,61.31 57.76,61.97 C57.71,62.53 57.50,63.07 57.15,63.52 C56.54,64.38 56.21,65.41 56.19,66.47 C56.31,67.45 56.72,68.37 57.36,69.11 L55.22,70.43 L33.43,57.03 M58.43,68.46 C57.55,67.17 57.44,66.64 57.44,66.47 C57.46,65.64 57.73,64.84 58.22,64.17 C58.70,63.53 58.97,62.76 59.01,61.97 C58.88,60.81 58.19,59.80 57.15,59.27 C56.36,58.69 55.88,58.30 55.88,57.72 C55.97,57.29 56.10,56.88 56.26,56.47 C56.63,55.59 56.87,54.65 56.96,53.70 C56.99,52.96 56.68,52.24 56.11,51.76 C54.11,50.03 52.00,48.43 49.79,46.97 L55.23,43.63 L77.02,57.03 L58.43,68.46 M71.83,66.69 L72.13,66.87 L50.34,80.27 L38.72,73.13 L44.36,69.67 L43.70,68.60 L37.53,72.39 L33.43,69.88 L38.61,66.69 L37.96,65.63 L31.04,69.88 L55.22,84.75 L79.41,69.88 L72.49,65.63 L71.83,66.69 M55.23,83.28 L51.54,81.01 L73.33,67.61 L77.02,69.88 L55.23,83.28 M49.22,54.08 C48.65,54.08 48.13,54.42 47.91,54.95 C47.69,55.48 47.82,56.08 48.22,56.49 C48.62,56.89 49.23,57.01 49.76,56.79 C50.28,56.57 50.63,56.06 50.63,55.49 C50.63,54.71 50.00,54.08 49.22,54.08 L49.22,54.08 M49.06,55.49 C49.06,55.43 49.09,55.38 49.14,55.35 C49.19,55.32 49.25,55.32 49.29,55.35 C49.34,55.38 49.37,55.43 49.37,55.49 C49.37,55.66 49.06,55.66 49.06,55.49 L49.06,55.49 M47.65,58.39 C46.65,58.39 45.85,59.19 45.85,60.19 C45.85,61.18 46.65,61.99 47.65,61.99 C48.64,61.99 49.45,61.18 49.45,60.19 C49.45,59.19 48.64,58.39 47.65,58.39 L47.65,58.39 M47.65,60.74 C47.35,60.74 47.10,60.49 47.10,60.19 C47.10,59.89 47.35,59.64 47.65,59.64 C47.95,59.64 48.20,59.89 48.20,60.19 C48.20,60.49 47.95,60.74 47.65,60.74 L47.65,60.74 M64.89,58.86 C65.89,58.86 66.69,58.05 66.69,57.05 C66.69,56.06 65.89,55.25 64.89,55.25 C63.89,55.25 63.09,56.06 63.09,57.05 C63.09,58.05 63.89,58.86 64.89,58.86 L64.89,58.86 M64.89,56.50 C65.19,56.50 65.44,56.75 65.44,57.05 C65.44,57.36 65.19,57.60 64.89,57.60 C64.59,57.60 64.34,57.36 64.34,57.05 C64.34,56.75 64.59,56.50 64.89,56.50 L64.89,56.50" fill-rule="evenodd" fill="#6e6e6e"/></svg>