<svg xmlns="http://www.w3.org/2000/svg" viewBox="0 0 100.00 85.67" width="100.00" height="85.67"><path d="M33.28,68.15 L17.36,68.15 L17.36,66.88 L25.48,66.88 L25.48,60.19 L2.76,60.19 C1.24,60.19 0.00,58.95 0.00,57.43 L0.00,2.76 C0.00,1.24 1.24,0.00 2.76,0.00 L82.91,0.00 C84.43,0.00 85.67,1.24 85.67,2.76 L85.67,41.24 L84.39,41.24 L84.39,2.76 C84.39,1.94 83.73,1.27 82.91,1.27 L2.76,1.27 C1.94,1.27 1.27,1.94 1.27,2.76 L1.27,57.43 C1.27,58.25 1.94,58.92 2.76,58.92 L33.28,58.92 L33.28,60.19 L26.75,60.19 L26.75,66.88 L33.28,66.88 L33.28,68.15 M47.45,33.36 L47.45,31.59 C47.47,30.83 47.98,30.16 48.71,29.94 C49.24,29.89 49.78,29.99 50.26,30.23 C50.80,30.47 51.38,30.61 51.97,30.63 C53.27,30.51 54.41,29.71 54.97,28.54 C55.65,27.57 56.11,26.98 56.93,26.98 C57.57,26.98 57.82,27.34 58.32,28.30 C58.62,28.96 59.04,29.56 59.56,30.07 C60.89,31.33 62.63,32.07 64.46,32.16 C65.11,32.11 65.74,31.91 66.30,31.57 C66.69,31.34 67.12,31.19 67.57,31.13 C68.38,31.00 69.17,30.78 69.93,30.46 C70.65,30.22 71.44,29.95 72.10,29.77 C72.93,29.61 73.78,29.58 74.62,29.68 C75.03,29.70 75.43,29.73 75.80,29.73 C77.43,29.59 79.03,29.17 80.51,28.47 L80.00,27.30 C78.68,27.94 77.26,28.33 75.80,28.45 C75.45,28.45 75.08,28.43 74.71,28.40 C73.72,28.30 72.73,28.34 71.76,28.54 C71.08,28.73 70.27,29.01 69.52,29.26 C68.88,29.49 68.23,29.69 67.57,29.85 C66.92,29.90 66.29,30.10 65.73,30.43 C65.34,30.67 64.91,30.82 64.46,30.88 C62.94,30.79 61.50,30.17 60.40,29.11 C60.00,28.71 59.68,28.23 59.45,27.71 C58.98,26.82 58.40,25.71 56.93,25.71 C55.63,25.83 54.49,26.63 53.93,27.80 C53.25,28.77 52.79,29.36 51.97,29.36 C51.54,29.33 51.11,29.23 50.72,29.04 C50.02,28.71 49.25,28.59 48.48,28.69 C47.15,29.02 46.20,30.21 46.18,31.59 L46.18,33.36 C46.18,34.11 45.77,34.55 45.11,35.21 C44.26,35.88 43.74,36.88 43.68,37.97 C43.70,38.49 43.91,38.99 44.26,39.37 C44.56,39.75 44.84,40.12 43.97,41.24 L45.49,41.24 C46.05,40.42 45.96,39.31 45.27,38.59 C45.06,38.32 44.95,38.17 44.95,37.97 C44.95,37.22 45.36,36.77 46.02,36.11 C46.87,35.44 47.39,34.44 47.45,33.36 L47.45,33.36 M22.79,19.51 C23.93,19.51 24.46,20.37 25.29,21.85 C26.03,23.11 27.43,23.83 28.89,23.70 C31.69,23.70 33.47,20.46 33.47,18.23 C33.42,17.33 34.09,16.55 34.99,16.46 C35.61,16.52 36.19,16.79 36.64,17.22 C37.30,17.83 38.16,18.19 39.06,18.24 C41.02,18.24 41.85,16.77 42.58,15.47 C43.00,14.50 43.70,13.67 44.57,13.08 C47.46,11.52 47.21,7.14 46.97,5.33 L45.71,5.50 C45.86,6.71 46.21,10.74 43.96,11.96 C42.87,12.66 42.00,13.66 41.47,14.84 C40.70,16.20 40.21,16.96 39.06,16.96 C38.44,16.91 37.86,16.64 37.41,16.20 C36.75,15.59 35.89,15.23 34.99,15.18 C33.39,15.28 32.15,16.63 32.19,18.23 C32.19,19.68 30.91,22.43 28.89,22.43 C27.87,22.55 26.87,22.05 26.36,21.16 C25.60,19.79 24.73,18.23 22.79,18.23 C20.76,18.31 19.17,20.02 19.24,22.05 C19.25,22.64 19.34,23.23 19.51,23.80 C19.65,24.26 19.73,24.74 19.74,25.23 C19.70,25.96 19.47,26.66 19.06,27.27 C18.55,28.07 18.26,28.98 18.22,29.93 C18.34,31.36 19.58,32.43 21.02,32.34 C21.74,32.34 22.46,32.18 23.13,31.89 C23.68,31.62 24.29,31.52 24.89,31.58 C25.71,31.66 25.97,33.01 25.97,33.49 C25.97,34.57 25.12,35.42 24.22,36.32 C22.89,37.65 21.24,39.29 22.61,42.03 C23.08,42.97 24.33,43.27 25.66,43.57 C27.38,43.98 28.51,44.32 28.51,45.30 C28.53,45.81 28.62,46.30 28.78,46.78 C28.93,47.12 28.98,47.49 28.92,47.85 C28.72,48.28 28.46,48.68 28.14,49.03 C27.39,49.76 26.93,50.74 26.82,51.78 C26.82,51.94 27.03,54.22 27.12,54.65 L27.18,54.92 L28.43,54.64 L28.37,54.37 C28.30,54.07 28.11,51.98 28.10,51.78 C28.22,51.04 28.59,50.35 29.13,49.82 C29.55,49.36 29.88,48.84 30.12,48.27 C30.28,47.65 30.24,47.01 30.00,46.42 C29.88,46.06 29.80,45.68 29.79,45.30 C29.79,43.23 27.66,42.74 25.95,42.34 C25.01,42.12 23.95,41.87 23.75,41.46 C22.84,39.64 23.68,38.66 25.12,37.22 C26.31,36.32 27.08,34.97 27.24,33.49 C27.24,32.35 26.64,30.47 25.02,30.31 C24.21,30.23 23.40,30.36 22.66,30.70 C22.15,30.94 21.59,31.06 21.02,31.07 C20.29,31.07 19.50,30.63 19.50,29.93 C19.54,29.20 19.77,28.49 20.18,27.88 C20.69,27.08 20.98,26.17 21.02,25.23 C21.01,24.63 20.91,24.04 20.74,23.47 C20.60,23.01 20.52,22.53 20.51,22.05 C20.44,20.72 21.46,19.58 22.79,19.51 L22.79,19.51 M79.62,56.58 L79.62,61.94 L80.89,61.94 L80.89,54.14 L73.09,54.14 L73.09,55.41 L79.01,55.41 L65.99,66.97 L57.06,60.55 L48.19,70.98 L49.16,71.80 L57.27,62.27 L66.07,68.59 L79.62,56.58 M100.00,78.03 L100.00,81.85 C100.00,83.96 98.29,85.67 96.18,85.67 L34.08,85.67 C31.97,85.67 30.26,83.96 30.25,81.85 L30.25,78.03 L36.62,78.03 L36.62,47.35 C36.63,45.82 37.86,44.59 39.38,44.59 L90.87,44.59 C92.39,44.59 93.63,45.82 93.63,47.35 L93.63,78.03 L100.00,78.03 M37.90,78.03 L60.10,78.03 L60.28,78.34 C60.73,79.13 61.57,79.61 62.47,79.62 L68.84,79.62 C69.75,79.62 70.59,79.13 71.04,78.34 L71.22,78.03 L92.36,78.03 L92.36,47.35 C92.36,46.53 91.69,45.86 90.87,45.86 L39.38,45.86 C38.56,45.86 37.90,46.53 37.90,47.35 L37.90,78.03 M98.73,79.30 L71.93,79.30 C71.22,80.30 70.07,80.89 68.84,80.89 L62.47,80.89 C61.25,80.89 60.10,80.30 59.38,79.30 L40.80,79.30 L40.80,78.50 L31.53,79.25 L31.53,81.85 C31.53,83.25 32.67,84.39 34.07,84.39 L96.18,84.39 C97.58,84.39 98.72,83.25 98.72,81.85 L98.73,79.30" fill-rule="evenodd" fill="#ff7465"/></svg>